<?xml version="1.0" encoding="iso-8859-1"?>
<!-- Generator: Adobe Illustrator 19.0.0, SVG Export Plug-In . SVG Version: 6.00 Build 0)  -->
<svg version="1.1" id="Layer_1" xmlns="http://www.w3.org/2000/svg" xmlns:xlink="http://www.w3.org/1999/xlink" x="0px" y="0px"
	 viewBox="0 0 512 512" style="enable-background:new 0 0 512 512;" xml:space="preserve">
<path style="fill:#269AF2;" d="M421.537,405.43c43.564,0,78.879-35.316,78.879-78.88c0-37.422-26.069-68.737-61.032-76.827
	C438.669,170.541,374.27,106.57,294.92,106.57c-54.478,0-101.905,30.156-126.522,74.681c-7.49-3.241-15.746-5.046-24.425-5.046
	c-31.268,0-57.074,23.316-61.025,53.506c-40.687,8.068-71.364,43.949-71.364,87.004c0,48.996,39.718,88.714,88.713,88.714
	C113.943,405.43,412.187,405.43,421.537,405.43z"/>
<path style="fill:#11113F;" d="M421.537,417.014H100.296C44.992,417.014,0,372.02,0,316.717c0-45.055,30.245-84.444,72.968-96.513
	c7.949-32.195,37.158-55.581,71.005-55.581c6.589,0,13.049,0.865,19.308,2.581c28.561-44.783,78.137-72.217,131.64-72.217
	c41.436,0,80.457,16.068,109.876,45.241c27.327,27.1,43.42,62.578,45.853,100.681c16.137,5.502,30.603,15.579,41.383,28.962
	C504.908,285.857,512,305.986,512,326.549C512,376.431,471.419,417.014,421.537,417.014z M143.973,187.789
	c-25.002,0-46.3,18.669-49.54,43.426c-0.645,4.925-4.359,8.893-9.232,9.859c-35.945,7.127-62.033,38.94-62.033,75.643
	c0,42.528,34.601,77.129,77.129,77.129h321.241c37.106,0,67.296-30.189,67.296-67.297c0-31.496-21.408-58.448-52.061-65.542
	c-5.215-1.207-8.924-5.829-8.972-11.181c-0.654-72.604-60.265-131.673-132.88-131.673c-48.361,0-92.956,26.325-116.385,68.702
	c-2.884,5.22-9.262,7.396-14.738,5.026C157.52,189.167,150.85,187.789,143.973,187.789z"/>
<g>
</g>
<g>
</g>
<g>
</g>
<g>
</g>
<g>
</g>
<g>
</g>
<g>
</g>
<g>
</g>
<g>
</g>
<g>
</g>
<g>
</g>
<g>
</g>
<g>
</g>
<g>
</g>
<g>
</g>
</svg>
